{
    "asset" : {
        "generator" : "Khronos glTF Blender I/O v1.2.75",
        "version" : "2.0"
    },
    "scene" : 0,
    "scenes" : [
        {
            "name" : "Scene",
            "nodes" : [
                2
            ]
        }
    ],
    "nodes" : [
        {
            "name" : "Bone"
        },
        {
            "mesh" : 0,
            "name" : "Cube",
            "skin" : 0
        },
        {
            "children" : [
                1,
                0
            ],
            "name" : "Armature"
        }
    ],
    "materials" : [
        {
            "doubleSided" : true,
            "emissiveFactor" : [
                0,
                0,
                0
            ],
            "name" : "Material",
            "pbrMetallicRoughness" : {
                "baseColorTexture" : {
                    "index" : 0,
                    "texCoord" : 0
                },
                "metallicFactor" : 0,
                "roughnessFactor" : 0.5
            }
        },
        {
            "doubleSided" : true,
            "emissiveFactor" : [
                0,
                0,
                0
            ],
            "name" : "Material.002",
            "pbrMetallicRoughness" : {
                "baseColorTexture" : {
                    "index" : 1,
                    "texCoord" : 0
                },
                "metallicFactor" : 0,
                "roughnessFactor" : 0.5
            }
        },
        {
            "doubleSided" : true,
            "emissiveFactor" : [
                0,
                0,
                0
            ],
            "name" : "Material.003",
            "pbrMetallicRoughness" : {
                "baseColorTexture" : {
                    "index" : 2,
                    "texCoord" : 0
                },
                "metallicFactor" : 0,
                "roughnessFactor" : 0.5
            }
        }
    ],
    "meshes" : [
        {
            "name" : "Cube",
            "primitives" : [
                {
                    "attributes" : {
                        "POSITION" : 0,
                        "NORMAL" : 1,
                        "TEXCOORD_0" : 2,
                        "JOINTS_0" : 3,
                        "WEIGHTS_0" : 4
                    },
                    "indices" : 5,
                    "material" : 0
                },
                {
                    "attributes" : {
                        "POSITION" : 6,
                        "NORMAL" : 7,
                        "TEXCOORD_0" : 8,
                        "JOINTS_0" : 9,
                        "WEIGHTS_0" : 10
                    },
                    "indices" : 11,
                    "material" : 1
                },
                {
                    "attributes" : {
                        "POSITION" : 12,
                        "NORMAL" : 13,
                        "TEXCOORD_0" : 14,
                        "JOINTS_0" : 15,
                        "WEIGHTS_0" : 16
                    },
                    "indices" : 17,
                    "material" : 2
                }
            ]
        }
    ],
    "textures" : [
        {
            "source" : 0
        },
        {
            "source" : 1
        },
        {
            "source" : 2
        }
    ],
    "images" : [
        {
            "mimeType" : "image/png",
            "name" : "raspberrypimap",
            "uri" : "raspberrypimap.png"
        },
        {
            "mimeType" : "image/jpeg",
            "name" : "1914-03",
            "uri" : "1914-03.jpg"
        },
        {
            "mimeType" : "image/jpeg",
            "name" : "RPI-809574_altpic_2",
            "uri" : "RPI-809574_altpic_2.jpg"
        }
    ],
    "skins" : [
        {
            "inverseBindMatrices" : 18,
            "joints" : [
                0
            ],
            "name" : "Armature"
        }
    ],
    "accessors" : [
        {
            "bufferView" : 0,
            "componentType" : 5126,
            "count" : 1987,
            "max" : [
                4.529118061065674,
                1.4530819654464722,
                3.1958656311035156
            ],
            "min" : [
                -4.279998779296875,
                -0.1492760181427002,
                -2.825000762939453
            ],
            "type" : "VEC3"
        },
        {
            "bufferView" : 1,
            "componentType" : 5126,
            "count" : 1987,
            "type" : "VEC3"
        },
        {
            "bufferView" : 2,
            "componentType" : 5126,
            "count" : 1987,
            "type" : "VEC2"
        },
        {
            "bufferView" : 3,
            "componentType" : 5123,
            "count" : 1987,
            "type" : "VEC4"
        },
        {
            "bufferView" : 4,
            "componentType" : 5126,
            "count" : 1987,
            "type" : "VEC4"
        },
        {
            "bufferView" : 5,
            "componentType" : 5123,
            "count" : 4113,
            "type" : "SCALAR"
        },
        {
            "bufferView" : 6,
            "componentType" : 5126,
            "count" : 40,
            "max" : [
                1.4993482828140259,
                0.6844866275787354,
                3.1958656311035156
            ],
            "min" : [
                -3.544208526611328,
                0.017000004649162292,
                2.891177177429199
            ],
            "type" : "VEC3"
        },
        {
            "bufferView" : 7,
            "componentType" : 5126,
            "count" : 40,
            "type" : "VEC3"
        },
        {
            "bufferView" : 8,
            "componentType" : 5126,
            "count" : 40,
            "type" : "VEC2"
        },
        {
            "bufferView" : 9,
            "componentType" : 5123,
            "count" : 40,
            "type" : "VEC4"
        },
        {
            "bufferView" : 10,
            "componentType" : 5126,
            "count" : 40,
            "type" : "VEC4"
        },
        {
            "bufferView" : 11,
            "componentType" : 5123,
            "count" : 102,
            "type" : "SCALAR"
        },
        {
            "bufferView" : 12,
            "componentType" : 5126,
            "count" : 8,
            "max" : [
                4.384356498718262,
                1.4530819654464722,
                0.504447877407074
            ],
            "min" : [
                4.384356498718262,
                0.017000000923871994,
                -2.747082233428955
            ],
            "type" : "VEC3"
        },
        {
            "bufferView" : 13,
            "componentType" : 5126,
            "count" : 8,
            "type" : "VEC3"
        },
        {
            "bufferView" : 14,
            "componentType" : 5126,
            "count" : 8,
            "type" : "VEC2"
        },
        {
            "bufferView" : 15,
            "componentType" : 5123,
            "count" : 8,
            "type" : "VEC4"
        },
        {
            "bufferView" : 16,
            "componentType" : 5126,
            "count" : 8,
            "type" : "VEC4"
        },
        {
            "bufferView" : 17,
            "componentType" : 5123,
            "count" : 12,
            "type" : "SCALAR"
        },
        {
            "bufferView" : 18,
            "componentType" : 5126,
            "count" : 1,
            "type" : "MAT4"
        }
    ],
    "bufferViews" : [
        {
            "buffer" : 0,
            "byteLength" : 23844,
            "byteOffset" : 0
        },
        {
            "buffer" : 0,
            "byteLength" : 23844,
            "byteOffset" : 23844
        },
        {
            "buffer" : 0,
            "byteLength" : 15896,
            "byteOffset" : 47688
        },
        {
            "buffer" : 0,
            "byteLength" : 15896,
            "byteOffset" : 63584
        },
        {
            "buffer" : 0,
            "byteLength" : 31792,
            "byteOffset" : 79480
        },
        {
            "buffer" : 0,
            "byteLength" : 8226,
            "byteOffset" : 111272
        },
        {
            "buffer" : 0,
            "byteLength" : 480,
            "byteOffset" : 119500
        },
        {
            "buffer" : 0,
            "byteLength" : 480,
            "byteOffset" : 119980
        },
        {
            "buffer" : 0,
            "byteLength" : 320,
            "byteOffset" : 120460
        },
        {
            "buffer" : 0,
            "byteLength" : 320,
            "byteOffset" : 120780
        },
        {
            "buffer" : 0,
            "byteLength" : 640,
            "byteOffset" : 121100
        },
        {
            "buffer" : 0,
            "byteLength" : 204,
            "byteOffset" : 121740
        },
        {
            "buffer" : 0,
            "byteLength" : 96,
            "byteOffset" : 121944
        },
        {
            "buffer" : 0,
            "byteLength" : 96,
            "byteOffset" : 122040
        },
        {
            "buffer" : 0,
            "byteLength" : 64,
            "byteOffset" : 122136
        },
        {
            "buffer" : 0,
            "byteLength" : 64,
            "byteOffset" : 122200
        },
        {
            "buffer" : 0,
            "byteLength" : 128,
            "byteOffset" : 122264
        },
        {
            "buffer" : 0,
            "byteLength" : 24,
            "byteOffset" : 122392
        },
        {
            "buffer" : 0,
            "byteLength" : 64,
            "byteOffset" : 122416
        }
    ],
    "buffers" : [
        {
            "byteLength" : 122480,
            "uri" : "raspberrypi.bin"
        }
    ]
}
